# xmcd
#
# Track frame offsets: 
#        150
#        23573
#        33704
#        48769
#        63099
#        75161
#        90327
#        105098
#        120800
#        136887
#
# Disc length: 2005 seconds
#
# Revision: 0
# Processed by: cddbd v1.5.2PL0 Copyright (c) Steve Scherf et al.
# Submitted via: ExactAudioCopy v0.95b4
#
DISCID=5b07d30a
DTITLE=David Allen Coe - The Outlaw
DYEAR=1993
DGENRE=
TTITLE0=You Never Even Called Me By My Name
TTITLE1=(If I Could Climb) The Walls of the Bottle
TTITLE2=Long Haired Redneck
TTITLE3=Willie, Waylon and Me
TTITLE4=Cheap Thrills
TTITLE5=Lately I've Been Thinking Too Much Lately
TTITLE6=Jack Daniel's if You Please
TTITLE7=If This is Just a Game
TTITLE8=Ride 'em Cowboy
TTITLE9=Tennessee Whiskey
EXTD=
EXTT0=
EXTT1=
EXTT2=
EXTT3=
EXTT4=
EXTT5=
EXTT6=
EXTT7=
EXTT8=
EXTT9=
PLAYORDER=
